<svg xmlns="http://www.w3.org/2000/svg" xmlns:xlink="http://www.w3.org/1999/xlink" width="34" height="34" viewBox="0 0 34 34"><defs><style>.a{fill-rule:evenodd;fill:url(#a);}</style><linearGradient id="a" x1="0.249" y1="1.046" x2="0.698" y2="-0.141" gradientUnits="objectBoundingBox"><stop offset="0" stop-color="#35edfb"/><stop offset="0.553" stop-color="#2d9bef"/><stop offset="1" stop-color="#9b2def"/></linearGradient></defs><path class="a" d="M10.509,1.275A17.3,17.3,0,0,1,17.042,0a15.706,15.706,0,0,1,9.373,2.975,16.877,16.877,0,0,1,6.249,7.508,16.065,16.065,0,0,1,.994,9.633,16.036,16.036,0,0,1-4.545,8.642l-1.562-1.417a15.464,15.464,0,0,0,3.976-7.508,14.547,14.547,0,0,0-.852-8.5,13.765,13.765,0,0,0-5.539-6.517A15.27,15.27,0,0,0,16.9,2.267h0A13.146,13.146,0,0,0,11.219,3.4,13.827,13.827,0,0,0,6.533,6.375h0A17.381,17.381,0,0,0,3.266,11.05,15.373,15.373,0,0,0,2.13,16.575a15.054,15.054,0,0,0,4.26,10.342L4.829,28.333A16.028,16.028,0,0,1,0,16.717H0a15.977,15.977,0,0,1,1.278-6.375A17.352,17.352,0,0,1,4.971,4.958,16.475,16.475,0,0,1,10.509,1.275ZM13.3,7.428A10.633,10.633,0,0,1,17.042,6.8a9.675,9.675,0,0,1,7.243,2.975,9.245,9.245,0,0,1,2.982,7.083h0A10,10,0,0,1,24.285,23.8l-1.562-1.558a7.731,7.731,0,0,0,2.272-5.383,7.932,7.932,0,0,0-2.414-5.667A7.971,7.971,0,0,0,16.9,8.783h0a6.452,6.452,0,0,0-3.116.7,6.42,6.42,0,0,0-2.423,1.712A8.255,8.255,0,0,0,8.947,17a7.731,7.731,0,0,0,2.272,5.383L9.657,23.942A10.363,10.363,0,0,1,6.675,17h0A10.912,10.912,0,0,1,9.8,9.775h0A11.676,11.676,0,0,1,13.3,7.428ZM18.178,34h-2.13V20.117a3.359,3.359,0,0,1-2.414-3.258,3.408,3.408,0,0,1,6.817,0,3.359,3.359,0,0,1-2.414,3.258V34Z"/></svg>