<svg xmlns="http://www.w3.org/2000/svg" width="46" height="43.721" viewBox="0 0 46 43.721"><defs><style>.a{fill:#1c3aa9;}.b{fill:#4285f4;}.c{fill:#ababab;}.d{fill:#a6a6a6;}</style></defs><g transform="translate(-13.002 -20.245)"><path class="a" d="M69.334,35.608q0-.332-.016-.66V22.46l-3.452,3.452a15.409,15.409,0,0,0-24.215.428l5.659,5.718A7.5,7.5,0,0,1,49.6,29.486a6.83,6.83,0,0,1,4.324-1.4,1.545,1.545,0,0,1,.547.079,7.461,7.461,0,0,1,5.7,3.435L56.171,35.6c5.074-.02,10.805-.032,13.162,0" transform="translate(-18.289 0)"/><path class="b" d="M48.364,20.246q-.332,0-.66.016H35.216l3.452,3.452A15.409,15.409,0,0,0,39.1,47.929l5.718-5.659a7.5,7.5,0,0,1-2.572-2.292,6.831,6.831,0,0,1-1.4-4.324,1.545,1.545,0,0,1,.079-.547,7.461,7.461,0,0,1,3.435-5.7l4.006,4.006c-.02-5.074-.032-10.805,0-13.162" transform="translate(-12.721 -0.001)"/><path class="c" d="M33,62.181q0,.332.016.66V75.33l3.452-3.452a15.409,15.409,0,0,0,24.215-.428l-5.659-5.718A7.5,7.5,0,0,1,52.733,68.3a6.83,6.83,0,0,1-4.324,1.4,1.545,1.545,0,0,1-.547-.079,7.461,7.461,0,0,1-5.7-3.435l4.006-4.006c-5.074.02-10.805.032-13.162,0" transform="translate(-12.767 -26.678)"/><path class="d" d="M22.887,120.24a2.284,2.284,0,0,0-1,.214,2.081,2.081,0,0,0-.752.6,2.8,2.8,0,0,0-.468.941,4.4,4.4,0,0,0-.159,1.228v1.305a4.421,4.421,0,0,0,.159,1.233,2.862,2.862,0,0,0,.463.937,2.042,2.042,0,0,0,.723.6,2.135,2.135,0,0,0,.955.209,2.615,2.615,0,0,0,.955-.16,1.833,1.833,0,0,0,.694-.461,2.09,2.09,0,0,0,.429-.738,3.448,3.448,0,0,0,.183-.98h-.892a4,4,0,0,1-.116.723,1.317,1.317,0,0,1-.241.49.919.919,0,0,1-.405.281,1.831,1.831,0,0,1-.608.087,1.207,1.207,0,0,1-.656-.17,1.328,1.328,0,0,1-.439-.476,2.412,2.412,0,0,1-.241-.7,4.918,4.918,0,0,1-.072-.869V123.21a4.368,4.368,0,0,1,.087-.907,2.156,2.156,0,0,1,.275-.694,1.288,1.288,0,0,1,.463-.442,1.317,1.317,0,0,1,.665-.16,1.43,1.43,0,0,1,.555.1.9.9,0,0,1,.386.291,1.361,1.361,0,0,1,.236.495,3.75,3.75,0,0,1,.111.718h.892a3.523,3.523,0,0,0-.178-1.014,2.123,2.123,0,0,0-.429-.743,1.77,1.77,0,0,0-.67-.456,2.429,2.429,0,0,0-.9-.155Zm21.778,0a2.284,2.284,0,0,0-1,.214,2.081,2.081,0,0,0-.752.6,2.8,2.8,0,0,0-.468.941,4.4,4.4,0,0,0-.159,1.228v1.305a4.421,4.421,0,0,0,.159,1.233,2.861,2.861,0,0,0,.463.937,2.042,2.042,0,0,0,.723.6,2.135,2.135,0,0,0,.955.209,2.615,2.615,0,0,0,.955-.16,1.834,1.834,0,0,0,.694-.461,2.09,2.09,0,0,0,.429-.738,3.448,3.448,0,0,0,.183-.98h-.892a4,4,0,0,1-.116.723,1.317,1.317,0,0,1-.241.49.919.919,0,0,1-.405.281,1.831,1.831,0,0,1-.608.087,1.207,1.207,0,0,1-.656-.17,1.328,1.328,0,0,1-.439-.476,2.412,2.412,0,0,1-.241-.7,4.918,4.918,0,0,1-.072-.869V123.21a4.369,4.369,0,0,1,.087-.907,2.156,2.156,0,0,1,.275-.694,1.288,1.288,0,0,1,.463-.442,1.317,1.317,0,0,1,.665-.16,1.43,1.43,0,0,1,.555.1.9.9,0,0,1,.386.291,1.361,1.361,0,0,1,.236.495,3.75,3.75,0,0,1,.111.718h.892a3.524,3.524,0,0,0-.178-1.014,2.123,2.123,0,0,0-.429-.743,1.77,1.77,0,0,0-.67-.456,2.429,2.429,0,0,0-.9-.155Zm-16.695.1L25.708,127.4h.907l.545-1.844h2.373l.555,1.844h.907l-2.267-7.066Zm3.978,0V127.4h.882v-2.766h1.355a2.639,2.639,0,0,0,.9-.141,1.759,1.759,0,0,0,.656-.417,1.715,1.715,0,0,0,.405-.67,2.772,2.772,0,0,0,.14-.912,2.561,2.561,0,0,0-.14-.864,1.883,1.883,0,0,0-.4-.684,1.784,1.784,0,0,0-.661-.451,2.349,2.349,0,0,0-.9-.16Zm5.01,0v.767H38.8v6.3h.882v-6.3H41.53v-.767Zm11.077,0V127.4h.882v-3.266h2.826V127.4h.887v-7.066h-.887v3.038H48.918v-3.038Zm7.942,0L53.716,127.4h.907l.545-1.844H57.54l.555,1.844H59l-2.267-7.066ZM32.83,121.1h1.355a1.191,1.191,0,0,1,.55.116,1.047,1.047,0,0,1,.376.311,1.251,1.251,0,0,1,.217.451,1.893,1.893,0,0,1,.072.524,2,2,0,0,1-.072.553,1.162,1.162,0,0,1-.217.432.98.98,0,0,1-.376.281,1.336,1.336,0,0,1-.55.1H32.83Zm-4.485.476.96,3.213H27.391Zm28.008,0,.96,3.213H55.4Zm-41.539.476a.971.971,0,0,0-.574.17,1.357,1.357,0,0,0-.4.461l-.014-.534H13V127.4h.854v-3.756a1.247,1.247,0,0,1,.342-.529.851.851,0,0,1,.574-.194,1.816,1.816,0,0,1,.2.01,1.44,1.44,0,0,1,.188.024l0-.835a.292.292,0,0,0-.063-.019.552.552,0,0,0-.087-.024.956.956,0,0,0-.1-.015.444.444,0,0,0-.087-.01Zm2.869,0a2.018,2.018,0,0,0-.719.131,1.569,1.569,0,0,0-.617.432,2.227,2.227,0,0,0-.429.776,3.619,3.619,0,0,0-.164,1.17v.592a3.47,3.47,0,0,0,.14,1.043,1.978,1.978,0,0,0,.4.733,1.648,1.648,0,0,0,.641.427,2.394,2.394,0,0,0,.844.141,2.437,2.437,0,0,0,.6-.068,2.231,2.231,0,0,0,.477-.175,1.675,1.675,0,0,0,.357-.252,1.926,1.926,0,0,0,.256-.291l-.444-.544a2.317,2.317,0,0,1-.227.243,1.576,1.576,0,0,1-.265.189,1.384,1.384,0,0,1-.318.121,1.6,1.6,0,0,1-.391.044,1.118,1.118,0,0,1-.911-.383,1.935,1.935,0,0,1-.313-1.228v-.121h2.913v-.5a4.988,4.988,0,0,0-.1-1.063,2.13,2.13,0,0,0-.323-.776,1.4,1.4,0,0,0-.569-.476,1.942,1.942,0,0,0-.839-.165Zm0,.738a.944.944,0,0,1,.463.1.748.748,0,0,1,.289.286,1.324,1.324,0,0,1,.159.442,3.533,3.533,0,0,1,.068.558v.116H16.609a3.086,3.086,0,0,1,.106-.733,1.308,1.308,0,0,1,.227-.461.771.771,0,0,1,.333-.243,1.2,1.2,0,0,1,.41-.068Z" transform="translate(0 -63.534)"/></g></svg>